<svg xmlns="http://www.w3.org/2000/svg" width="1041" height="792" viewBox="0 0 1041 792">
  <g fill="none" fill-rule="evenodd" stroke="#06E0A5" stroke-width="4" opacity=".3" transform="rotate(-90 396.92 397.86)">
    <path d="M438.06 439.54C622.336324 439.54 717.576324 439.54 723.78 439.54 729.983676 439.54 690.000303 439.54 603.829882 439.54L603.829882 733.54C603.829882 776.839124 638.930758 811.94 682.229882 811.94L794.78 811.94M400.82 439.34L400.82 576.74C400.82 620.039124 365.719124 655.14 322.42 655.14L4.9 655.14M401.8 533.62L603.68 533.62"/>
    <polyline points="111.72 654.16 111.72 936.4 795.76 936.4"/>
    <circle cx="149.18" cy="440.18" r="89.18"/>
    <circle cx="149.06" cy="440.06" r="46.06"/>
    <path d="M146.02 530.68L146.02 655.2M146.98 350.94L146.98.94M438.92 439.98L239 439.98M60.88 439.98L6 439.98M603.68 732.56L111.78 732.56M383.18 935.42L383.18 911.9C383.18 868.600876 348.079124 833.5 304.78 833.5L2.94 833.5M210.7 938.36L210.7 1142.2M559.58 936.4L559.58 1069.68M661.5 938.36L661.5 1142.2"/>
  </g>
</svg>
