<svg xmlns="http://www.w3.org/2000/svg" width="20" height="15" viewBox="0 0 20 15">
    <g fill="none" fill-rule="evenodd">
        <path fill="#282828" fill-rule="nonzero" d="M-1133-42H307V58h-1440z"/>
        <path fill="#FFF" d="M13.353 0c-2.185 0-3.956 1.694-3.956 3.788 0 .295.035.586.103.861C6.21 4.49 3.294 2.985 1.343.69a3.661 3.661 0 0 0-.535 1.907c0 1.314.697 2.474 1.76 3.15a4.038 4.038 0 0 1-1.793-.472v.049c0 1.834 1.363 3.365 3.174 3.713a4.16 4.16 0 0 1-1.787.067c.504 1.5 1.965 2.6 3.697 2.63a8.2 8.2 0 0 1-4.914 1.622c-.32 0-.635-.02-.945-.054A11.572 11.572 0 0 0 6.066 15c7.278 0 11.258-5.771 11.258-10.775 0-.162-.004-.328-.011-.49a7.838 7.838 0 0 0 1.975-1.958 8.326 8.326 0 0 1-2.272.594A3.838 3.838 0 0 0 18.755.276a8.14 8.14 0 0 1-2.512.918A4.045 4.045 0 0 0 13.353 0"/>
    </g>
</svg>
