<svg xmlns="http://www.w3.org/2000/svg" width="18" height="18" viewBox="0 0 18 18">
    <g fill="none" fill-rule="nonzero">
        <path fill="#282828" d="M-1184-41H256V59h-1440z"/>
        <path fill="#FFF" d="M5.22 0h7.56C15.66 0 18 2.34 18 5.22v7.56A5.22 5.22 0 0 1 12.78 18H5.22C2.34 18 0 15.66 0 12.78V5.22A5.22 5.22 0 0 1 5.22 0zm-.18 1.8A3.24 3.24 0 0 0 1.8 5.04v7.92a3.238 3.238 0 0 0 3.24 3.24h7.92a3.24 3.24 0 0 0 3.24-3.24V5.04a3.238 3.238 0 0 0-3.24-3.24H5.04zm8.685 1.35a1.125 1.125 0 1 1 0 2.25 1.125 1.125 0 0 1 0-2.25zM9 4.5a4.5 4.5 0 1 1 0 9 4.5 4.5 0 0 1 0-9zm0 1.8a2.7 2.7 0 1 0 0 5.4 2.7 2.7 0 0 0 0-5.4z"/>
    </g>
</svg>
